<svg xmlns="http://www.w3.org/2000/svg" id="Layer_1" viewBox="0 0 299 220.01"><defs><style>.cls-1{fill:#fff}.cls-2,.cls-3{fill:#2199d7}.cls-3{font-family:MyriadPro-Bold,&apos;Myriad Pro&apos;;font-size:49px}</style></defs><g id="Layer_1-2"><rect width="156" height="156" y="64.01" class="cls-2"/><g><path d="M199.32,0c-.12,.07,1.01,5.07,1.06,5.41,1.37,9,1.29,18.68-1.97,27.29-1.95,5.13-5.11,9.76-9.5,13.16-5.6,4.34-13.53,4.54-18.65,9.18-2.17,1.97-4.44,3.19-7.11,4.49-4.69,2.28-6.35,3.62-7.66,8.71-2.54,.63-1.36-2.3-2.26-3.35-1.23-1.44-4.54-.9-6.44-.81,5.82-.28,9.75-2.25,14.44-5.26,2.98-1.91,9.24-3.1,9.47-7.38,.16-2.79-2.95-6.57-3.62-9.4-.9-3.8-.7-7.74,.41-11.48,4.28-14.28,19.41-23.85,31.84-30.56" class="cls-2"/><path d="M163.49,57.94s5.74-15.71-17.24-26.34c0,0,2.13,26.51,17.24,26.34" class="cls-2"/></g><path d="M22.52,199.38c1.81,1.08,5.22,2.22,8.05,2.22,3.48,0,5.03-1.4,5.03-3.43s-1.29-3.17-5.15-4.5c-6.12-2.09-8.7-5.39-8.64-9,0-5.45,4.58-9.7,11.86-9.7,3.47,0,6.51,.89,8.31,1.84l-1.54,5.52c-1.35-.76-3.87-1.77-6.64-1.77s-4.38,1.33-4.38,3.23,1.48,2.92,5.48,4.31c5.67,2.03,8.31,4.88,8.38,9.45,0,5.58-4.45,9.64-12.76,9.64-3.8,0-7.22-.89-9.53-2.16l1.55-5.64" class="cls-1"/><path d="M55.95,191.14c0,5.96,2.97,10.46,7.8,10.46,4.51,0,7.67-4.38,7.67-10.59,0-4.82-2.19-10.34-7.6-10.34s-7.86,5.32-7.86,10.46m23.65-.32c0,11.35-8.12,16.42-16.1,16.42-8.9,0-15.72-6.02-15.72-15.91s6.77-16.36,16.24-16.36c9.34,0,15.59,6.47,15.59,15.85Z" class="cls-1"/><rect width="7.99" height="45.02" x="86.1" y="161.53" class="cls-1"/><path d="M102.66,206.55v-30.88h7.99v30.88h-7.99Zm8.44-39.5c0,2.35-1.74,4.18-4.51,4.18s-4.38-1.84-4.38-4.18,1.8-4.25,4.44-4.25,4.38,1.84,4.45,4.25Z" class="cls-1"/><path d="M140.15,188.54c0-.63-.07-1.4-.2-2.03-.71-3.05-3.22-5.51-6.83-5.51-5.09,0-7.92,4.43-7.92,10.2s2.84,9.76,7.86,9.76c3.22,0,6.05-2.15,6.83-5.52,.19-.7,.26-1.46,.26-2.28v-4.63m7.92-27.01v36.33c0,3.17,.13,6.6,.26,8.69h-7.09l-.32-4.89h-.13c-1.87,3.43-5.67,5.58-10.24,5.58-7.47,0-13.4-6.28-13.4-15.78-.06-10.34,6.51-16.49,14.05-16.49,4.32,0,7.41,1.78,8.82,4.06h.13v-17.5h7.92Z" class="cls-1"/><text class="cls-3" transform="translate(160.82 206.02)"><tspan x="0" y="0">EDGE</tspan></text></g></svg>