<svg xmlns="http://www.w3.org/2000/svg" id="Layer_1" viewBox="0 0 299 220.01"><defs><style>.cls-1{fill:#fff}.cls-2{fill:#6bad45}</style></defs><g id="Layer_1-2"><rect width="156" height="156" y="64.01" class="cls-2"/><rect width="141.14" height="57.49" x="13.88" y="154.08" class="cls-2"/><g><path d="M199.32,0c-.12,.07,1.01,5.07,1.06,5.41,1.37,9,1.29,18.68-1.97,27.29-1.95,5.13-5.11,9.76-9.5,13.16-5.6,4.34-13.53,4.54-18.65,9.18-2.17,1.97-4.44,3.19-7.11,4.49-4.69,2.28-6.35,3.62-7.66,8.71-2.54,.63-1.36-2.3-2.26-3.35-1.23-1.44-4.54-.9-6.44-.81,5.82-.28,9.75-2.25,14.44-5.26,2.98-1.91,9.24-3.1,9.47-7.38,.16-2.79-2.95-6.57-3.62-9.4-.9-3.8-.7-7.74,.41-11.48,4.28-14.28,19.41-23.85,31.84-30.56" class="cls-2"/><path d="M163.49,57.94s5.74-15.71-17.24-26.34c0,0,2.13,26.51,17.24,26.34" class="cls-2"/></g><path d="M189.46,206.1c-2.2,.74-6.37,1.75-10.54,1.75-5.76,0-9.93-1.43-12.84-4.19-2.91-2.68-4.5-6.74-4.45-11.3,.04-10.33,7.68-16.23,18.04-16.23,4.07,0,7.21,.78,8.76,1.52l-1.5,5.63c-1.73-.74-3.89-1.34-7.35-1.34-5.95,0-10.45,3.32-10.45,10.05s4.07,10.19,9.93,10.19c1.64,0,2.95-.19,3.52-.46v-6.5h-4.87v-5.49h11.76v16.37" class="cls-2"/><path d="M202.11,190.24h2.81c3.56,0,5.67-1.75,5.67-4.48,0-2.86-1.97-4.29-5.25-4.33-1.74,0-2.72,.14-3.23,.23v8.58m-7.08-13.37c2.3-.37,5.71-.64,9.51-.64,4.68,0,7.97,.69,10.21,2.44,1.87,1.48,2.9,3.64,2.9,6.5,0,3.96-2.85,6.69-5.57,7.65v.14c2.2,.88,3.42,2.95,4.22,5.81,.98,3.51,1.97,7.56,2.58,8.76h-7.31c-.51-.88-1.26-3.41-2.2-7.24-.84-3.87-2.2-4.93-5.1-4.98h-2.15v12.22h-7.08v-30.67h0Z" class="cls-2"/><polyline points="241.61 194.39 229.98 194.39 229.98 201.77 242.96 201.77 242.96 207.53 222.82 207.53 222.82 176.45 242.31 176.45 242.31 182.21 229.98 182.21 229.98 188.67 241.61 188.67 241.61 194.39" class="cls-2"/><polyline points="266.63 194.39 255 194.39 255 201.77 267.98 201.77 267.98 207.53 247.84 207.53 247.84 176.45 267.33 176.45 267.33 182.21 255 182.21 255 188.67 266.63 188.67 266.63 194.39" class="cls-2"/><path d="M272.86,207.53v-31.08h8.34l6.56,11.38c1.88,3.28,3.75,7.15,5.15,10.65h.14c-.47-4.1-.61-8.3-.61-12.96v-9.08h6.56v31.08h-7.5l-6.75-11.99c-1.88-3.32-3.93-7.33-5.48-10.98l-.14,.05c.19,4.1,.28,8.49,.28,13.56v9.36h-6.56" class="cls-2"/><path d="M22.52,199.38c1.81,1.08,5.22,2.22,8.05,2.22,3.48,0,5.03-1.4,5.03-3.43s-1.29-3.17-5.15-4.5c-6.12-2.09-8.7-5.39-8.64-9,0-5.45,4.58-9.7,11.86-9.7,3.47,0,6.51,.89,8.31,1.84l-1.54,5.52c-1.35-.76-3.87-1.77-6.64-1.77s-4.38,1.33-4.38,3.23,1.48,2.92,5.48,4.31c5.67,2.03,8.31,4.88,8.38,9.45,0,5.58-4.45,9.64-12.76,9.64-3.8,0-7.22-.89-9.53-2.16l1.55-5.64" class="cls-1"/><path d="M55.95,191.14c0,5.96,2.97,10.46,7.8,10.46,4.51,0,7.67-4.38,7.67-10.59,0-4.82-2.19-10.34-7.6-10.34s-7.86,5.32-7.86,10.46m23.65-.32c0,11.35-8.12,16.42-16.1,16.42-8.9,0-15.72-6.02-15.72-15.91s6.77-16.36,16.24-16.36c9.34,0,15.59,6.47,15.59,15.85Z" class="cls-1"/><rect width="7.99" height="45.02" x="86.1" y="161.53" class="cls-1"/><path d="M102.66,206.55v-30.88h7.99v30.88h-7.99Zm8.44-39.5c0,2.35-1.74,4.18-4.51,4.18s-4.38-1.84-4.38-4.18,1.8-4.25,4.44-4.25,4.38,1.84,4.45,4.25Z" class="cls-1"/><path d="M140.15,188.54c0-.63-.07-1.4-.2-2.03-.71-3.05-3.22-5.51-6.83-5.51-5.09,0-7.92,4.43-7.92,10.2s2.84,9.76,7.86,9.76c3.22,0,6.05-2.15,6.83-5.52,.19-.7,.26-1.46,.26-2.28v-4.63m7.92-27.01v36.33c0,3.17,.13,6.6,.26,8.69h-7.09l-.32-4.89h-.13c-1.87,3.43-5.67,5.58-10.24,5.58-7.47,0-13.4-6.28-13.4-15.78-.06-10.34,6.51-16.49,14.05-16.49,4.32,0,7.41,1.78,8.82,4.06h.13v-17.5h7.92Z" class="cls-1"/></g></svg>