<?xml version="1.0" standalone="no"?>
<!DOCTYPE svg PUBLIC "-//W3C//DTD SVG 20010904//EN"
 "http://www.w3.org/TR/2001/REC-SVG-20010904/DTD/svg10.dtd">
<svg version="1.0" xmlns="http://www.w3.org/2000/svg"
 width="528.000000pt" height="472.000000pt" viewBox="0 0 528.000000 472.000000"
 preserveAspectRatio="xMidYMid meet">

<g transform="translate(0.000000,472.000000) scale(0.100000,-0.100000)"
fill="#000000" stroke="none">
<path d="M3256 4287 c3 -10 9 -15 12 -12 3 3 0 11 -7 18 -10 9 -11 8 -5 -6z"/>
<path d="M3282 4130 c0 -14 2 -19 5 -12 2 6 2 18 0 25 -3 6 -5 1 -5 -13z"/>
<path d="M2585 3880 c-3 -5 -1 -10 4 -10 6 0 11 5 11 10 0 6 -2 10 -4 10 -3 0
-8 -4 -11 -10z"/>
<path d="M2671 3828 c2 -2 18 -14 34 -28 l30 -25 -24 28 c-14 15 -29 27 -34
27 -6 0 -8 -1 -6 -2z"/>
<path d="M2630 3689 c0 -5 5 -7 10 -4 6 3 10 8 10 11 0 2 -4 4 -10 4 -5 0 -10
-5 -10 -11z"/>
<path d="M2781 3644 c0 -11 3 -14 6 -6 3 7 2 16 -1 19 -3 4 -6 -2 -5 -13z"/>
<path d="M2686 3488 c3 -5 10 -6 15 -3 13 9 11 12 -6 12 -8 0 -12 -4 -9 -9z"/>
<path d="M621 3454 c0 -11 3 -14 6 -6 3 7 2 16 -1 19 -3 4 -6 -2 -5 -13z"/>
<path d="M1778 2193 c12 -2 32 -2 45 0 12 2 2 4 -23 4 -25 0 -35 -2 -22 -4z"/>
<path d="M2025 2180 c-3 -5 1 -10 10 -10 9 0 13 5 10 10 -3 6 -8 10 -10 10 -2
0 -7 -4 -10 -10z"/>
<path d="M1741 2154 c0 -11 3 -14 6 -6 3 7 2 16 -1 19 -3 4 -6 -2 -5 -13z"/>
<path d="M2070 2166 c0 -2 8 -10 18 -17 15 -13 16 -12 3 4 -13 16 -21 21 -21
13z"/>
<path d="M2882 2043 c37 -2 100 -2 140 0 40 1 10 3 -67 3 -77 0 -110 -1 -73
-3z"/>
<path d="M3194 2037 c-2 -7 -3 -96 -1 -197 l2 -185 3 192 2 192 73 4 72 3 -73
2 c-51 1 -74 -2 -78 -11z"/>
<path d="M4183 2043 c32 -2 81 -2 110 0 29 2 3 3 -58 3 -60 0 -84 -1 -52 -3z"/>
<path d="M3371 2037 c16 -12 79 -45 79 -42 0 7 -63 45 -74 45 -5 0 -7 -1 -5
-3z"/>
<path d="M3773 2023 c9 -2 23 -2 30 0 6 3 -1 5 -18 5 -16 0 -22 -2 -12 -5z"/>
<path d="M3880 2026 c0 -2 8 -10 18 -17 15 -13 16 -12 3 4 -13 16 -21 21 -21
13z"/>
<path d="M1000 2010 c-9 -6 -10 -10 -3 -10 6 0 15 5 18 10 8 12 4 12 -15 0z"/>
<path d="M1400 2010 c-9 -6 -10 -10 -3 -10 6 0 15 5 18 10 8 12 4 12 -15 0z"/>
<path d="M3654 1998 c-12 -14 -13 -18 -3 -10 9 6 18 10 21 7 2 -3 5 2 5 10 0
19 0 19 -23 -7z"/>
<path d="M4198 2013 c7 -3 16 -2 19 1 4 3 -2 6 -13 5 -11 0 -14 -3 -6 -6z"/>
<path d="M4263 2013 c9 -2 23 -2 30 0 6 3 -1 5 -18 5 -16 0 -22 -2 -12 -5z"/>
<path d="M2013 2003 c15 -2 39 -2 55 0 15 2 2 4 -28 4 -30 0 -43 -2 -27 -4z"/>
<path d="M4103 1940 c0 -36 2 -50 4 -32 2 17 2 47 0 65 -2 17 -4 3 -4 -33z"/>
<path d="M3410 1986 c0 -2 8 -10 18 -17 15 -13 16 -12 3 4 -13 16 -21 21 -21
13z"/>
<path d="M3456 1972 c-3 -5 1 -9 9 -9 8 0 12 4 9 9 -3 4 -7 8 -9 8 -2 0 -6 -4
-9 -8z"/>
<path d="M1171 1954 c0 -11 3 -14 6 -6 3 7 2 16 -1 19 -3 4 -6 -2 -5 -13z"/>
<path d="M3931 1944 c0 -11 3 -14 6 -6 3 7 2 16 -1 19 -3 4 -6 -2 -5 -13z"/>
<path d="M2398 1903 c7 -3 16 -2 19 1 4 3 -2 6 -13 5 -11 0 -14 -3 -6 -6z"/>
<path d="M3640 1837 l5 -62 3 54 c2 30 0 58 -5 62 -4 4 -6 -20 -3 -54z"/>
<path d="M1236 1857 c3 -10 9 -15 12 -12 3 3 0 11 -7 18 -10 9 -11 8 -5 -6z"/>
<path d="M1526 1853 c-6 -14 -5 -15 5 -6 7 7 10 15 7 18 -3 3 -9 -2 -12 -12z"/>
<path d="M3503 1835 c0 -22 2 -30 4 -17 2 12 2 30 0 40 -3 9 -5 -1 -4 -23z"/>
<path d="M3611 1854 c0 -11 3 -14 6 -6 3 7 2 16 -1 19 -3 4 -6 -2 -5 -13z"/>
<path d="M2988 1843 c6 -2 18 -2 25 0 6 3 1 5 -13 5 -14 0 -19 -2 -12 -5z"/>
<path d="M4193 1843 c9 -2 25 -2 35 0 9 3 1 5 -18 5 -19 0 -27 -2 -17 -5z"/>
<path d="M4270 1846 c0 -2 9 -6 20 -9 11 -3 20 -1 20 4 0 5 -9 9 -20 9 -11 0
-20 -2 -20 -4z"/>
<path d="M1682 1795 c0 -16 2 -22 5 -12 2 9 2 23 0 30 -3 6 -5 -1 -5 -18z"/>
<path d="M2938 1813 c17 -2 47 -2 65 0 17 2 3 4 -33 4 -36 0 -50 -2 -32 -4z"/>
<path d="M4188 1813 c23 -2 59 -2 80 0 20 2 1 4 -43 4 -44 0 -61 -2 -37 -4z"/>
<path d="M1231 1784 c0 -11 3 -14 6 -6 3 7 2 16 -1 19 -3 4 -6 -2 -5 -13z"/>
<path d="M3943 1740 c0 -36 2 -50 4 -32 2 17 2 47 0 65 -2 17 -4 3 -4 -33z"/>
<path d="M4103 1745 c0 -33 2 -45 4 -27 2 18 2 45 0 60 -2 15 -4 0 -4 -33z"/>
<path d="M1176 1767 c3 -10 9 -15 12 -12 3 3 0 11 -7 18 -10 9 -11 8 -5 -6z"/>
<path d="M2291 1754 c0 -11 3 -14 6 -6 3 7 2 16 -1 19 -3 4 -6 -2 -5 -13z"/>
<path d="M2161 1744 c0 -11 3 -14 6 -6 3 7 2 16 -1 19 -3 4 -6 -2 -5 -13z"/>
<path d="M2439 1693 c-13 -16 -12 -17 4 -4 9 7 17 15 17 17 0 8 -8 3 -21 -13z"/>
<path d="M3414 1668 l-19 -23 23 19 c21 18 27 26 19 26 -2 0 -12 -10 -23 -22z"/>
<path d="M1050 1670 c-9 -6 -10 -10 -3 -10 6 0 15 5 18 10 8 12 4 12 -15 0z"/>
<path d="M1485 1670 c-3 -5 -2 -10 4 -10 5 0 13 5 16 10 3 6 2 10 -4 10 -5 0
-13 -4 -16 -10z"/>
<path d="M3192 1625 c0 -16 2 -22 5 -12 2 9 2 23 0 30 -3 6 -5 -1 -5 -18z"/>
<path d="M1283 1625 c0 -8 4 -12 9 -9 5 3 6 10 3 15 -9 13 -12 11 -12 -6z"/>
<path d="M1614 1618 l-19 -23 23 19 c21 18 27 26 19 26 -2 0 -12 -10 -23 -22z"/>
<path d="M2215 1620 c10 -11 20 -20 23 -20 3 0 -3 9 -13 20 -10 11 -20 20 -23
20 -3 0 3 -9 13 -20z"/>
<path d="M2430 1580 c-9 -6 -10 -10 -3 -10 6 0 15 5 18 10 8 12 4 12 -15 0z"/>
<path d="M948 1563 c7 -3 16 -2 19 1 4 3 -2 6 -13 5 -11 0 -14 -3 -6 -6z"/>
<path d="M2147 803 c-2 -5 -3 -22 -3 -40 1 -32 0 -32 -36 -27 -31 5 -38 3 -53
-19 -39 -60 10 -156 65 -127 18 10 24 9 31 -1 5 -8 9 34 9 104 0 108 -2 130
-13 110z m-7 -143 c0 -45 -3 -50 -25 -56 -35 -9 -55 11 -55 55 0 40 8 55 30
63 32 11 50 -11 50 -62z"/>
<path d="M2290 690 c0 -67 4 -110 10 -110 6 0 10 5 10 11 0 6 7 8 15 5 8 -3
22 -9 30 -12 24 -10 65 40 65 81 0 58 -63 98 -98 63 -9 -9 -12 -3 -12 30 0 23
-4 42 -10 42 -6 0 -10 -43 -10 -110z m106 -5 c10 -40 -3 -74 -31 -81 -37 -9
-55 11 -55 63 0 36 4 45 23 52 29 11 55 -3 63 -34z"/>
<path d="M1040 685 c0 -63 4 -105 10 -105 6 0 10 20 10 45 l0 45 41 0 c58 0
79 14 79 54 0 47 -25 66 -88 66 l-52 0 0 -105z m95 85 c22 -8 26 -15 23 -42
-2 -27 -9 -34 -35 -41 -48 -14 -63 -4 -63 41 0 21 3 42 7 45 9 10 38 9 68 -3z"/>
<path d="M1240 720 c-31 -31 -27 -93 6 -119 15 -12 32 -21 39 -21 7 0 24 9 39
21 52 41 25 139 -39 139 -14 0 -34 -9 -45 -20z m82 -14 c12 -17 9 -81 -4 -94
-7 -7 -21 -12 -33 -12 -12 0 -26 5 -33 12 -13 13 -16 76 -4 94 16 24 58 24 74
0z"/>
<path d="M1404 664 c12 -41 26 -75 32 -75 5 0 16 22 24 50 8 27 18 53 21 56 4
3 15 -18 24 -47 10 -29 21 -57 25 -62 8 -8 50 114 50 143 0 30 -18 -3 -29 -54
-7 -31 -16 -54 -19 -50 -4 3 -14 29 -22 57 -9 28 -20 53 -25 55 -6 2 -19 -25
-29 -60 l-19 -62 -14 50 c-21 73 -22 75 -31 75 -5 0 0 -34 12 -76z"/>
<path d="M1640 720 c-40 -40 -22 -114 33 -133 21 -8 67 8 67 23 0 7 -6 8 -19
0 -30 -16 -59 -12 -71 9 -18 35 -12 41 46 41 47 0 55 3 50 16 -3 9 -6 19 -6
24 0 17 -32 40 -56 40 -13 0 -33 -9 -44 -20z m70 -10 c27 -27 17 -40 -31 -40
-43 0 -51 16 -23 44 20 21 30 20 54 -4z"/>
<path d="M1780 664 c0 -91 18 -108 22 -22 3 54 6 64 26 73 32 14 27 21 -13 21
l-35 0 0 -72z"/>
<path d="M1900 720 c-40 -40 -22 -114 33 -133 19 -7 67 11 67 25 0 5 -9 4 -19
-2 -27 -14 -47 -13 -65 6 -32 31 -20 44 40 44 47 0 55 3 50 16 -3 9 -6 19 -6
24 0 17 -32 40 -56 40 -13 0 -33 -9 -44 -20z m70 -10 c27 -27 17 -40 -31 -40
-42 0 -49 12 -22 42 21 23 28 23 53 -2z"/>
<path d="M2450 732 c0 -5 11 -42 25 -82 14 -40 25 -75 25 -77 0 -2 -12 -15
-26 -28 -26 -24 -16 -35 14 -17 17 11 84 214 69 209 -7 -2 -18 -27 -26 -55 -8
-29 -18 -52 -22 -52 -4 0 -16 25 -25 55 -10 30 -21 55 -26 55 -4 0 -8 -4 -8
-8z"/>
</g>
</svg>
